<?xml version="1.0" encoding="UTF-8"?>
<svg id="_圖層_2" data-name="圖層 2" xmlns="http://www.w3.org/2000/svg" viewBox="0 0 152.86 54.13">
  <defs>
    <style>
      .cls-1 {
        fill: #f5a530;
      }

      .cls-2 {
        fill: #004e5a;
      }
    </style>
  </defs>
  <g id="_圖層_1-2" data-name="圖層 1">
    <g>
      <g>
        <path class="cls-2" d="M48.74,44.57c-.33,1.48-.63,3.11-.86,4.44h-2.65c.03-.52.28-1.99.47-2.86-1.12,1.9-3,3.19-5.58,3.19-3.03,0-4.98-1.75-4.05-6.1l2.34-10.82h2.68l-2.25,10.54c-.47,2.13-.37,4.05,2.32,4.05s4.74-1.93,5.73-6.59l1.71-8h2.71l-2.58,12.15Z"/>
        <path class="cls-2" d="M54.67,36.63c.29-1.44.58-2.84.83-4.21h2.65c-.05.52-.39,2.38-.51,2.83.94-1.51,2.54-3.16,5.58-3.16s5.14,1.83,4.12,6.54l-2.18,10.38h-2.7l2.16-10.3c.54-2.51-.02-4.23-2.55-4.23-3.08,0-4.85,2.83-5.56,6.23l-1.76,8.3h-2.71l2.62-12.38Z"/>
        <path class="cls-2" d="M78.28,32.44l.52-2.36c.66-3.05,2.23-5.4,5.52-5.4.78,0,1.56.12,1.91.25l-.5,2.31c-.34-.1-.94-.15-1.35-.15-1.58,0-2.47,1.02-2.89,3.01l-.24,1.1c-.14.64.35,1.24,1,1.24h2.01l-.5,2.23h0c-1.91,0-3.56,1.34-3.95,3.21l-2.34,11.16h-2.71l3.01-14.36"/>
        <path class="cls-2" d="M83.26,49.01l5.08-24.02h2.71l-5.08,24.02h-2.71Z"/>
        <path class="cls-2" d="M105.79,38.94c0,4.38-2.48,10.39-8.85,10.39-4.01,0-6.23-2.54-6.23-6.69,0-4.59,2.81-10.56,8.79-10.56,3.78,0,6.29,2.45,6.29,6.85ZM93.51,42.64c0,2.77,1.32,4.43,3.73,4.43,3.98,0,5.74-4.73,5.74-8.22,0-2.8-1.21-4.48-3.74-4.48-3.84,0-5.74,4.72-5.74,8.28Z"/>
        <path class="cls-2" d="M125.08,32.59h2.71l-3.52,16.59h-2.71l3.51-16.59ZM126.65,25.16h2.71l-.75,3.58h-2.71l.75-3.58Z"/>
        <path class="cls-2" d="M130.92,44.2c.18,1.72,1.24,3.12,3.88,3.12,2.23,0,3.39-1.1,3.39-2.68s-1.08-2.28-3.44-3.13c-3.57-1.25-4.67-2.51-4.67-4.43,0-2.58,1.98-4.81,5.98-4.81,4.3,0,5.91,2.41,5.85,4.79h-2.75c-.12-1.17-.66-2.63-3.35-2.63-1.73,0-2.98.85-2.98,2.35,0,1.17.95,1.72,3.29,2.57,3.49,1.24,4.9,2.64,4.9,4.95,0,3.31-2.66,5.22-6.62,5.22-4.22,0-6.25-2.21-6.23-5.31h2.75Z"/>
        <path class="cls-2" d="M143.87,32.59h2.75l1.02-4.79h2.7l-1.01,4.79h3.53l-.5,2.23h-3.53l-2.1,10.04c-.32,1.52-.25,2.25,1.19,2.25.48,0,1.13-.03,1.64-.14l-.49,2.14c-.77.26-1.58.28-2.31.28-2.61,0-3.44-1.26-2.86-4.02l2.22-10.55h-2.75l.5-2.23Z"/>
      </g>
      <path class="cls-2" d="M9.74,54.13c-1.49.05-2.63-.21-3.3-.43C2.19,52.3-.38,47.96.05,42.89c.68-8.1,9.87-15.89,30.25-18.95l-.75,1.03C10.89,27.77,3.61,36.51,3.05,43.14c-.31,3.71,1.39,6.72,4.32,7.69,4.09,1.34,10.99-1.37,18.12-12.99C44.27,6.87,62.97.54,73.28,4.52c4.67,1.81,7.27,5.77,6.47,9.86-1.19,6.09-10.07,13.1-34.48,8.44l.92-.9c22.12,4.22,29.68-3.46,30.59-8.11.51-2.61-1.34-5.2-4.6-6.46-7.42-2.87-25.06.66-44.11,32.07-7.43,12.11-14.24,14.59-18.34,14.72Z"/>
      <g>
        <path class="cls-1" d="M38.76,10.29c-.69.93-2.66,0-3.89,1.4-1.03,1.17-.14,2.37-1,3.52-1.3,1.73-4.15.08-7.39,1.37-3.62,1.44-3.71,4.98-5.41,4.91-2.7-.11-7.52-9.27-3.52-15.91C20.43.76,26.97-1.27,32.12.81c4.96,2,7.78,7.93,6.64,9.47Z"/>
        <path class="cls-1" d="M40.77,10.74c5.58-1.36,3.91-5.93,2.03-5.01-.5.25-.76.83-.72,1.39.14,2.03-.77,2.58-1.31,3.62Z"/>
        <path class="cls-1" d="M20.66,23.08c-4.32,3.78-7.1-.2-5.27-1.21.49-.27,1.12-.15,1.55.2,1.58,1.28,2.56.85,3.72,1.01Z"/>
      </g>
      <g>
        <path class="cls-2" d="M118.1,36.98s-.02-.04-.03-.05c-.88-.66-3.1.58-4.26,2.29.99-.88,1.89-1.3,2.53-1.53.66-.23,1.79-.52,1.76-.72Z"/>
        <path class="cls-2" d="M121.73,36.03c-.39-1.46-1.37-2.5-2.76-2.93-1.46-.44-3.23-.16-4.9.7.4-.59,1.01-1.45,1.63-1.87l-2.04-1.34c-3.63,3.44-6.2,12.3-7.22,18.47l2.42.02c.51-3.09,1.27-6.09,2.13-8.67h0c.3-1.06,1.24-2.2,2.76-3.54,1.44-1.26,3.3-1.88,4.52-1.5.6.18.98.6,1.16,1.26.09.33.04.62-.16.94-.86,1.41-3.95,2.54-5.69,2.92-.66.14-1.15.52-1.27,1.18-.11.59.16,1.21.66,1.59.71.55,1.89,2.29,1.45,3.08-.37.66-1.69.12-2.93-.37l-.82,2c1.08.43,1.91.71,2.62.79,2.25.25,2.94-.92,3.22-1.47.68-1.34-.18-3.25-1.01-4.58-.07-.12-.02-.27.11-.31,1.77-.56,4.53-1.69,5.69-3.59.53-.87.68-1.84.43-2.79Z"/>
      </g>
    </g>
  </g>
</svg>