<svg xmlns="http://www.w3.org/2000/svg" viewBox="14 -4 31 31">
  <g fill="#f5a530">
    <path d="M38.76,10.29c-.69.93-2.66,0-3.89,1.4-1.03,1.17-.14,2.37-1,3.52-1.3,1.73-4.15.08-7.39,1.37-3.62,1.44-3.71,4.98-5.41,4.91-2.7-.11-7.52-9.27-3.52-15.91C20.43.76,26.97-1.27,32.12.81c4.96,2,7.78,7.93,6.64,9.47Z"/>
    <path d="M40.77,10.74c5.58-1.36,3.91-5.93,2.03-5.01-.5.25-.76.83-.72,1.39.14,2.03-.77,2.58-1.31,3.62Z"/>
    <path d="M20.66,23.08c-4.32,3.78-7.1-.2-5.27-1.21.49-.27,1.12-.15,1.55.2,1.58,1.28,2.56.85,3.72,1.01Z"/>
  </g>
</svg>
